<?xml version="1.0" standalone="no"?><!DOCTYPE svg PUBLIC "-//W3C//DTD SVG 1.1//EN" "http://www.w3.org/Graphics/SVG/1.1/DTD/svg11.dtd"><svg t="1716611513895" class="icon" viewBox="0 0 1024 1024" version="1.1" xmlns="http://www.w3.org/2000/svg" p-id="30697" xmlns:xlink="http://www.w3.org/1999/xlink" width="200" height="200"><path d="M924.164374 45.238955c14.576441 0 28.353078 5.748597 38.800527 16.186049 10.437452 10.437452 16.186048 24.214088 16.186048 38.800527v823.798877c0 14.576441-5.748597 28.353078-16.186048 38.800527s-24.214088 16.186048-38.800527 16.186049h-823.798877c-14.576441 0-28.353078-5.748597-38.800528-16.186049s-16.186048-24.214088-16.186048-38.800527v-823.798877c0-14.576441 5.748597-28.353078 16.186048-38.800527C72.012419 50.987552 85.789055 45.238955 100.365497 45.238955h823.798877m0-44.989016h-823.798877c-54.986576 0-99.975592 44.989016-99.975592 99.975592v823.798877c0 54.986576 44.989016 99.975592 99.975592 99.975592h823.798877c54.986576 0 99.975592-44.989016 99.975592-99.975592v-823.798877c0-54.986576-44.989016-99.975592-99.975592-99.975592z" fill="#ffffff" p-id="30698"></path><path d="M1024.139966 270.184037H0.389905v44.989016h1023.750061v-44.989016zM157.851462 135.216988c-12.426966 0-22.494508 10.067542-22.494508 22.494508s10.067542 22.494508 22.494508 22.494508 22.494508-10.067542 22.494508-22.494508-10.067542-22.494508-22.494508-22.494508zM292.818511 135.216988c-12.426966 0-22.494508 10.067542-22.494508 22.494508s10.067542 22.494508 22.494508 22.494508 22.494508-10.067542 22.494508-22.494508-10.067542-22.494508-22.494508-22.494508zM427.78556 135.216988c-12.426966 0-22.494508 10.067542-22.494508 22.494508s10.067542 22.494508 22.494508 22.494508 22.494508-10.067542 22.494508-22.494508-10.067542-22.494508-22.494508-22.494508z" fill="#ffffff" p-id="30699"></path><path d="M111.842695 722.743549l34.141664-22.374538c9.70763 16.106068 22.764442 22.964393 36.821011 22.964394 21.754689 0 33.141909-10.437452 33.141908-40.860024V536.628987h49.547904v149.42352c0 41.459878-23.434279 75.461577-76.661284 75.461576-36.151174 0-60.255289-13.126795-76.991203-38.770534zM441.242275 700.668938h-80.340386l-17.40575 56.666166h-50.21774l79.34063-220.706117h58.245779l79.67055 220.706117h-51.887333l-17.40575-56.666166z m-10.717384-34.301625l-7.368201-24.154103c-7.698121-22.964393-14.396485-48.318204-21.754689-72.17238h-1.339672c-6.358448 24.154103-13.726649 49.207986-21.084853 72.17238l-7.368201 24.154103h58.915616zM501.167645 536.628987h51.887332L585.856969 644.002773c7.698121 24.45403 12.716895 46.52864 20.754932 71.282597h1.669593c7.698121-24.753957 13.386732-46.828567 21.084852-71.282597l32.132155-107.373786h50.21774l-75.991447 220.706117h-58.915617l-75.641532-220.706117zM849.982485 700.668938h-80.340386l-17.40575 56.666166h-50.21774l79.340629-220.706117h58.24578l79.670549 220.706117h-51.887332l-17.40575-56.666166z m-10.717384-34.301625l-7.368201-24.154103c-7.698121-22.964393-14.396485-48.318204-21.754689-72.17238H808.802538c-6.358448 24.154103-13.726649 49.207986-21.084852 72.17238l-7.368201 24.154103h58.915616z" fill="#ffffff" p-id="30700"></path></svg>