<?xml version="1.0" standalone="no"?><!DOCTYPE svg PUBLIC "-//W3C//DTD SVG 1.1//EN" "http://www.w3.org/Graphics/SVG/1.1/DTD/svg11.dtd"><svg t="1716611661225" class="icon" viewBox="0 0 1024 1024" version="1.1" xmlns="http://www.w3.org/2000/svg" p-id="1508" xmlns:xlink="http://www.w3.org/1999/xlink" width="200" height="200"><path d="M274.075169 253.748215c0 11.293207-9.154497 20.448728-20.448728 20.448727H84.938508c-11.295254 0-20.448728-9.154497-20.448728-20.448727V85.060281c0-11.294231 9.153474-20.448728 20.448728-20.448728h168.691003c11.292184 0 20.446681 9.154497 20.446681 20.448728v168.687934h-0.001023z m0 342.326622c0 11.292184-9.154497 20.446681-20.448728 20.446681H84.938508c-11.295254 0-20.448728-9.154497-20.448728-20.446681V427.383834c0-11.294231 9.153474-20.448728 20.448728-20.448728h168.691003c11.292184 0 20.448728 9.154497 20.448728 20.448728v168.68998h-0.00307v0.001023z m0 342.32253c0 11.293207-9.154497 20.446681-20.448728 20.446681H84.938508c-11.295254 0-20.448728-9.153474-20.448728-20.446681v-168.692027c0-11.292184 9.153474-20.446681 20.448728-20.446681h168.691003c11.292184 0 20.448728 9.154497 20.448728 20.446681v168.692027h-0.00307z m684.647105-684.649152c0 11.293207-9.154497 20.448728-20.446681 20.448727H409.794224c-11.292184 0-20.446681-9.154497-20.446682-20.448727V85.060281c0-11.294231 9.154497-20.448728 20.446682-20.448728h528.481369c11.292184 0 20.446681 9.154497 20.446681 20.448728v168.687934z m0 342.326622c0 11.292184-9.154497 20.446681-20.446681 20.446681H409.794224c-11.292184 0-20.446681-9.154497-20.446682-20.446681V427.383834c0-11.293207 9.154497-20.448728 20.446682-20.448728h528.481369c11.292184 0 20.446681 9.154497 20.446681 20.448728v168.691003z m0 342.32253c0 11.293207-9.154497 20.446681-20.446681 20.446681H409.794224c-11.292184 0-20.446681-9.153474-20.446682-20.446681v-168.692027c0-11.292184 9.154497-20.446681 20.446682-20.446681h528.481369c11.292184 0 20.446681 9.154497 20.446681 20.446681v168.692027z" p-id="1509" data-spm-anchor-id="a313x.search_index.0.i0.4a1c3a81T92BM2" class="selected" fill="#ffffff"></path></svg>