<?xml version="1.0" standalone="no"?><!DOCTYPE svg PUBLIC "-//W3C//DTD SVG 1.1//EN" "http://www.w3.org/Graphics/SVG/1.1/DTD/svg11.dtd"><svg t="1709603606878" class="icon" viewBox="0 0 1024 1024" version="1.1" xmlns="http://www.w3.org/2000/svg" p-id="5211" xmlns:xlink="http://www.w3.org/1999/xlink" width="200" height="200"><path d="M880.64 0c79.17568 0 143.36 64.18432 143.36 143.36v737.28c0 79.17568-64.18432 143.36-143.36 143.36H143.36c-79.17568 0-143.36-64.18432-143.36-143.36V143.36C0 64.18432 64.18432 0 143.36 0h737.28zM589.63968 337.11104c-52.81792 0-100.5568 27.24864-127.51872 71.95648a111.59552 111.59552 0 0 0-45.7728-9.79968c-53.63712 0-99.21536 37.9904-109.85472 89.82528C264.2432 499.44576 235.52 538.17344 235.52 586.58816c0 57.1904 40.48896 100.3008 94.19776 100.3008h358.94272c55.05024 0 99.81952-44.98432 99.81952-100.3008a100.72064 100.72064 0 0 0-50.04288-86.90688c0.33792-4.13696 0.512-8.35584 0.512-12.57472 0-82.7392-66.99008-149.99552-149.2992-149.99552z" fill="#3BBAFF" p-id="5212"></path></svg>